<mxfile host="app.diagrams.net" modified="2023-12-24T14:14:41.584Z" agent="Mozilla/5.0 (Windows NT 10.0; Win64; x64) AppleWebKit/537.36 (KHTML, like Gecko) Chrome/120.0.0.0 Safari/537.36" etag="S0TaDDDbWPdsYfFoidBN" version="22.1.11" type="device">
  <diagram id="C5RBs43oDa-KdzZeNtuy" name="Page-1">
    <mxGraphModel dx="1434" dy="746" grid="1" gridSize="10" guides="1" tooltips="1" connect="1" arrows="1" fold="1" page="0" pageScale="1" pageWidth="827" pageHeight="1169" math="0" shadow="0">
      <root>
        <mxCell id="WIyWlLk6GJQsqaUBKTNV-0" />
        <mxCell id="WIyWlLk6GJQsqaUBKTNV-1" parent="WIyWlLk6GJQsqaUBKTNV-0" />
        <mxCell id="S_8RKIRvYT19z__q4yAN-13" value="" style="edgeStyle=orthogonalEdgeStyle;rounded=0;orthogonalLoop=1;jettySize=auto;html=1;" edge="1" parent="WIyWlLk6GJQsqaUBKTNV-1" source="WIyWlLk6GJQsqaUBKTNV-3" target="S_8RKIRvYT19z__q4yAN-12">
          <mxGeometry relative="1" as="geometry" />
        </mxCell>
        <mxCell id="WIyWlLk6GJQsqaUBKTNV-3" value="Start" style="rounded=1;whiteSpace=wrap;html=1;fontSize=12;glass=0;strokeWidth=1;shadow=0;" parent="WIyWlLk6GJQsqaUBKTNV-1" vertex="1">
          <mxGeometry x="160" y="80" width="120" height="40" as="geometry" />
        </mxCell>
        <mxCell id="WIyWlLk6GJQsqaUBKTNV-6" value="Lamp&lt;br&gt;plugged in?" style="rhombus;whiteSpace=wrap;html=1;shadow=0;fontFamily=Helvetica;fontSize=12;align=center;strokeWidth=1;spacing=6;spacingTop=-4;" parent="WIyWlLk6GJQsqaUBKTNV-1" vertex="1">
          <mxGeometry x="60" y="560" width="100" height="80" as="geometry" />
        </mxCell>
        <mxCell id="S_8RKIRvYT19z__q4yAN-18" value="Yes" style="edgeStyle=orthogonalEdgeStyle;rounded=0;orthogonalLoop=1;jettySize=auto;html=1;" edge="1" parent="WIyWlLk6GJQsqaUBKTNV-1" source="S_8RKIRvYT19z__q4yAN-6" target="S_8RKIRvYT19z__q4yAN-17">
          <mxGeometry relative="1" as="geometry" />
        </mxCell>
        <mxCell id="S_8RKIRvYT19z__q4yAN-20" value="No" style="edgeStyle=orthogonalEdgeStyle;rounded=0;orthogonalLoop=1;jettySize=auto;html=1;" edge="1" parent="WIyWlLk6GJQsqaUBKTNV-1" source="S_8RKIRvYT19z__q4yAN-6" target="S_8RKIRvYT19z__q4yAN-19">
          <mxGeometry relative="1" as="geometry" />
        </mxCell>
        <mxCell id="S_8RKIRvYT19z__q4yAN-6" value="Len &amp;gt; 0" style="rhombus;whiteSpace=wrap;html=1;shadow=0;fontFamily=Helvetica;fontSize=12;align=center;strokeWidth=1;spacing=6;spacingTop=-4;" vertex="1" parent="WIyWlLk6GJQsqaUBKTNV-1">
          <mxGeometry x="170" y="240" width="100" height="80" as="geometry" />
        </mxCell>
        <mxCell id="S_8RKIRvYT19z__q4yAN-15" value="" style="edgeStyle=orthogonalEdgeStyle;rounded=0;orthogonalLoop=1;jettySize=auto;html=1;" edge="1" parent="WIyWlLk6GJQsqaUBKTNV-1" source="S_8RKIRvYT19z__q4yAN-12" target="S_8RKIRvYT19z__q4yAN-14">
          <mxGeometry relative="1" as="geometry" />
        </mxCell>
        <mxCell id="S_8RKIRvYT19z__q4yAN-12" value="Main" style="rounded=1;whiteSpace=wrap;html=1;glass=0;strokeWidth=1;shadow=0;" vertex="1" parent="WIyWlLk6GJQsqaUBKTNV-1">
          <mxGeometry x="160" y="130" width="120" height="40" as="geometry" />
        </mxCell>
        <mxCell id="S_8RKIRvYT19z__q4yAN-16" value="" style="edgeStyle=orthogonalEdgeStyle;rounded=0;orthogonalLoop=1;jettySize=auto;html=1;" edge="1" parent="WIyWlLk6GJQsqaUBKTNV-1" source="S_8RKIRvYT19z__q4yAN-14" target="S_8RKIRvYT19z__q4yAN-6">
          <mxGeometry relative="1" as="geometry" />
        </mxCell>
        <mxCell id="S_8RKIRvYT19z__q4yAN-14" value="Enter filename" style="shape=parallelogram;perimeter=parallelogramPerimeter;whiteSpace=wrap;html=1;fixedSize=1;rounded=1;glass=0;strokeWidth=1;shadow=0;" vertex="1" parent="WIyWlLk6GJQsqaUBKTNV-1">
          <mxGeometry x="160" y="180" width="120" height="40" as="geometry" />
        </mxCell>
        <mxCell id="S_8RKIRvYT19z__q4yAN-24" value="" style="edgeStyle=orthogonalEdgeStyle;rounded=0;orthogonalLoop=1;jettySize=auto;html=1;" edge="1" parent="WIyWlLk6GJQsqaUBKTNV-1" source="S_8RKIRvYT19z__q4yAN-17" target="S_8RKIRvYT19z__q4yAN-22">
          <mxGeometry relative="1" as="geometry" />
        </mxCell>
        <mxCell id="S_8RKIRvYT19z__q4yAN-17" value="Load Puzzle (Filename)" style="whiteSpace=wrap;html=1;shadow=0;strokeWidth=1;spacing=6;spacingTop=-4;" vertex="1" parent="WIyWlLk6GJQsqaUBKTNV-1">
          <mxGeometry x="340" y="250" width="120" height="60" as="geometry" />
        </mxCell>
        <mxCell id="S_8RKIRvYT19z__q4yAN-23" value="" style="edgeStyle=orthogonalEdgeStyle;rounded=0;orthogonalLoop=1;jettySize=auto;html=1;" edge="1" parent="WIyWlLk6GJQsqaUBKTNV-1" source="S_8RKIRvYT19z__q4yAN-19" target="S_8RKIRvYT19z__q4yAN-22">
          <mxGeometry relative="1" as="geometry" />
        </mxCell>
        <mxCell id="S_8RKIRvYT19z__q4yAN-19" value="Generate Puzzle" style="whiteSpace=wrap;html=1;shadow=0;strokeWidth=1;spacing=6;spacingTop=-4;" vertex="1" parent="WIyWlLk6GJQsqaUBKTNV-1">
          <mxGeometry x="160" y="360" width="120" height="60" as="geometry" />
        </mxCell>
        <mxCell id="S_8RKIRvYT19z__q4yAN-26" value="" style="edgeStyle=orthogonalEdgeStyle;rounded=0;orthogonalLoop=1;jettySize=auto;html=1;" edge="1" parent="WIyWlLk6GJQsqaUBKTNV-1" source="S_8RKIRvYT19z__q4yAN-22" target="S_8RKIRvYT19z__q4yAN-25">
          <mxGeometry relative="1" as="geometry" />
        </mxCell>
        <mxCell id="S_8RKIRvYT19z__q4yAN-22" value="Attempt Puzzle (Puzzle)" style="whiteSpace=wrap;html=1;shadow=0;strokeWidth=1;spacing=6;spacingTop=-4;rounded=1;" vertex="1" parent="WIyWlLk6GJQsqaUBKTNV-1">
          <mxGeometry x="340" y="360" width="120" height="60" as="geometry" />
        </mxCell>
        <mxCell id="S_8RKIRvYT19z__q4yAN-28" value="" style="edgeStyle=orthogonalEdgeStyle;rounded=0;orthogonalLoop=1;jettySize=auto;html=1;" edge="1" parent="WIyWlLk6GJQsqaUBKTNV-1" source="S_8RKIRvYT19z__q4yAN-25" target="S_8RKIRvYT19z__q4yAN-27">
          <mxGeometry relative="1" as="geometry" />
        </mxCell>
        <mxCell id="S_8RKIRvYT19z__q4yAN-25" value="Display Puzzle Result" style="whiteSpace=wrap;html=1;shadow=0;strokeWidth=1;spacing=6;spacingTop=-4;" vertex="1" parent="WIyWlLk6GJQsqaUBKTNV-1">
          <mxGeometry x="340" y="450" width="120" height="60" as="geometry" />
        </mxCell>
        <mxCell id="S_8RKIRvYT19z__q4yAN-30" value="Yes" style="edgeStyle=orthogonalEdgeStyle;rounded=0;orthogonalLoop=1;jettySize=auto;html=1;entryX=1;entryY=0.5;entryDx=0;entryDy=0;" edge="1" parent="WIyWlLk6GJQsqaUBKTNV-1" source="S_8RKIRvYT19z__q4yAN-27" target="S_8RKIRvYT19z__q4yAN-14">
          <mxGeometry relative="1" as="geometry">
            <mxPoint x="560" y="200" as="targetPoint" />
            <Array as="points">
              <mxPoint x="520" y="560" />
              <mxPoint x="520" y="200" />
            </Array>
          </mxGeometry>
        </mxCell>
        <mxCell id="S_8RKIRvYT19z__q4yAN-32" value="No" style="edgeStyle=orthogonalEdgeStyle;rounded=0;orthogonalLoop=1;jettySize=auto;html=1;" edge="1" parent="WIyWlLk6GJQsqaUBKTNV-1" source="S_8RKIRvYT19z__q4yAN-27" target="S_8RKIRvYT19z__q4yAN-31">
          <mxGeometry relative="1" as="geometry" />
        </mxCell>
        <mxCell id="S_8RKIRvYT19z__q4yAN-27" value="Again?" style="shape=parallelogram;perimeter=parallelogramPerimeter;whiteSpace=wrap;html=1;fixedSize=1;shadow=0;strokeWidth=1;spacing=6;spacingTop=-4;" vertex="1" parent="WIyWlLk6GJQsqaUBKTNV-1">
          <mxGeometry x="340" y="530" width="120" height="60" as="geometry" />
        </mxCell>
        <mxCell id="S_8RKIRvYT19z__q4yAN-31" value="End" style="rounded=1;whiteSpace=wrap;html=1;shadow=0;strokeWidth=1;spacing=6;spacingTop=-4;" vertex="1" parent="WIyWlLk6GJQsqaUBKTNV-1">
          <mxGeometry x="340" y="630" width="120" height="60" as="geometry" />
        </mxCell>
        <mxCell id="S_8RKIRvYT19z__q4yAN-33" value="Attempt Puzzle" style="rounded=1;whiteSpace=wrap;html=1;glass=0;strokeWidth=1;shadow=0;" vertex="1" parent="WIyWlLk6GJQsqaUBKTNV-1">
          <mxGeometry x="770" y="120" width="120" height="40" as="geometry" />
        </mxCell>
      </root>
    </mxGraphModel>
  </diagram>
</mxfile>
